<svg width="1802" height="262" viewBox="0 0 1802 262" fill="none" xmlns="http://www.w3.org/2000/svg">
<rect x="479.553" y="191.821" width="70.1786" height="70.1786" rx="17" fill="#0E0E0E"/>
<rect x="383.643" y="95.9107" width="70.1786" height="70.1786" rx="17" fill="#0E0E0E"/>
<rect x="479.553" width="70.1786" height="70.1786" rx="17" fill="#0E0E0E"/>
<rect x="287.732" y="95.9107" width="70.1786" height="70.1786" rx="17" fill="#0E0E0E"/>
<rect x="95.9102" y="95.9107" width="70.1786" height="70.1786" rx="17" fill="#0E0E0E"/>
<rect width="70.1786" height="70.1786" rx="17" fill="#0E0E0E"/>
<rect x="95.9102" y="191.821" width="70.1786" height="70.1786" rx="17" fill="#0E0E0E"/>
<rect y="191.821" width="70.1786" height="70.1786" rx="17" fill="#0E0E0E"/>
<rect x="191.822" width="70.1786" height="70.1786" rx="17" fill="#0E0E0E"/>
<rect x="1251.52" width="70.1786" height="70.1786" rx="17" fill="#0E0E0E"/>
<rect x="1731.07" width="70.1786" height="70.1786" rx="17" fill="#0E0E0E"/>
<rect x="1635.16" y="95.9107" width="70.1786" height="70.1786" rx="17" fill="#0E0E0E"/>
<rect x="1539.25" width="70.1786" height="70.1786" rx="17" fill="#0E0E0E"/>
<rect x="1443.34" y="95.9107" width="70.1786" height="70.1786" rx="17" fill="#0E0E0E"/>
<rect x="1347.43" y="95.9107" width="70.1786" height="70.1786" rx="17" fill="#0E0E0E"/>
<rect x="1251.52" y="191.821" width="70.1786" height="70.1786" rx="17" fill="#0E0E0E"/>
<rect x="1635.16" y="191.821" width="70.1786" height="70.1786" rx="17" fill="#0E0E0E"/>
<rect x="1731.07" y="191.821" width="70.1786" height="70.1786" rx="17" fill="#0E0E0E"/>
</svg>
