<svg width="2215" height="447" viewBox="0 0 2215 447" fill="none" xmlns="http://www.w3.org/2000/svg">
<path d="M95.7672 200.655L0 278.181V344.306L95.7672 446.914V305.543H191.534L237.138 200.655H95.7672Z" fill="white"/>
<path d="M296.422 104.888L351.146 0H296.422V104.888Z" fill="white"/>
<path d="M95.7672 200.655L0 278.181V344.306L95.7672 446.914V305.543H191.534L237.138 200.655H95.7672Z" fill="white"/>
<path d="M296.422 104.888L351.146 0H296.422V104.888Z" fill="white"/>
<path d="M0 104.888H95.7672V182.414H0V104.888Z" fill="white"/>
<path d="M0 104.888H95.7672V182.414H0V104.888Z" fill="white"/>
<path d="M95.7676 0H296.423V104.888H95.7676V0Z" fill="white"/>
<path d="M95.7676 0H296.423V104.888H95.7676V0Z" fill="white"/>
<path d="M552.261 356V88.3636H729.466V135.017H608.847V198.79H717.705V245.443H608.847V356H552.261ZM822.152 88.3636V356H766.482V88.3636H822.152ZM957.44 359.92C937.141 359.92 919.586 355.608 904.776 346.983C890.052 338.271 878.683 326.161 870.668 310.653C862.652 295.059 858.645 276.981 858.645 256.42C858.645 235.686 862.652 217.564 870.668 202.057C878.683 186.462 890.052 174.352 904.776 165.727C919.586 157.015 937.141 152.659 957.44 152.659C977.74 152.659 995.251 157.015 1009.97 165.727C1024.79 174.352 1036.2 186.462 1044.21 202.057C1052.23 217.564 1056.24 235.686 1056.24 256.42C1056.24 276.981 1052.23 295.059 1044.21 310.653C1036.2 326.161 1024.79 338.271 1009.97 346.983C995.251 355.608 977.74 359.92 957.44 359.92ZM957.702 316.795C966.937 316.795 974.647 314.182 980.832 308.955C987.018 303.64 991.679 296.409 994.815 287.261C998.039 278.114 999.651 267.703 999.651 256.028C999.651 244.354 998.039 233.943 994.815 224.795C991.679 215.648 987.018 208.417 980.832 203.102C974.647 197.788 966.937 195.131 957.702 195.131C948.38 195.131 940.539 197.788 934.179 203.102C927.906 208.417 923.158 215.648 919.935 224.795C916.798 233.943 915.23 244.354 915.23 256.028C915.23 267.703 916.798 278.114 919.935 287.261C923.158 296.409 927.906 303.64 934.179 308.955C940.539 314.182 948.38 316.795 957.702 316.795ZM1127 356L1072.38 155.273H1128.7L1159.8 290.136H1161.63L1194.04 155.273H1249.32L1282.25 289.352H1283.95L1314.53 155.273H1370.72L1316.23 356H1257.29L1222.79 229.761H1220.31L1185.81 356H1127ZM1482.23 360.182C1465.5 360.182 1450.73 355.956 1437.92 347.506C1425.12 338.968 1415.1 326.945 1407.87 311.438C1400.64 295.843 1397.02 277.417 1397.02 256.159C1397.02 235.076 1400.64 216.78 1407.87 201.273C1415.1 185.765 1425.16 173.786 1438.06 165.335C1450.95 156.884 1465.85 152.659 1482.75 152.659C1495.82 152.659 1506.14 154.837 1513.72 159.193C1521.39 163.462 1527.22 168.341 1531.23 173.83C1535.33 179.231 1538.51 183.674 1540.77 187.159H1543.38V88.3636H1574.23V356H1544.43V325.159H1540.77C1538.51 328.818 1535.28 333.436 1531.1 339.011C1526.92 344.5 1520.95 349.422 1513.2 353.778C1505.44 358.047 1495.12 360.182 1482.23 360.182ZM1486.41 332.477C1498.78 332.477 1509.23 329.254 1517.77 322.807C1526.31 316.273 1532.8 307.256 1537.24 295.756C1541.69 284.169 1543.91 270.795 1543.91 255.636C1543.91 240.652 1541.73 227.54 1537.37 216.301C1533.02 204.975 1526.57 196.176 1518.03 189.903C1509.49 183.544 1498.95 180.364 1486.41 180.364C1473.34 180.364 1462.45 183.718 1453.74 190.426C1445.11 197.047 1438.62 206.064 1434.27 217.477C1430 228.803 1427.86 241.523 1427.86 255.636C1427.86 269.924 1430.04 282.905 1434.4 294.58C1438.84 306.167 1445.37 315.402 1454 322.284C1462.71 329.08 1473.51 332.477 1486.41 332.477ZM1719.15 360.182C1699.81 360.182 1683.13 355.913 1669.1 347.375C1655.16 338.75 1644.4 326.727 1636.82 311.307C1629.33 295.799 1625.58 277.765 1625.58 257.205C1625.58 236.644 1629.33 218.523 1636.82 202.841C1644.4 187.072 1654.94 174.788 1668.45 165.989C1682.04 157.102 1697.89 152.659 1716.02 152.659C1726.47 152.659 1736.79 154.402 1746.99 157.886C1757.18 161.371 1766.46 167.034 1774.82 174.875C1783.19 182.629 1789.85 192.909 1794.82 205.716C1799.78 218.523 1802.27 234.292 1802.27 253.023V266.091H1647.54V239.432H1770.9C1770.9 228.106 1768.64 218 1764.11 209.114C1759.66 200.227 1753.3 193.214 1745.03 188.074C1736.84 182.934 1727.17 180.364 1716.02 180.364C1703.73 180.364 1693.1 183.413 1684.13 189.511C1675.24 195.523 1668.4 203.364 1663.61 213.034C1658.82 222.705 1656.42 233.072 1656.42 244.136V261.909C1656.42 277.068 1659.04 289.919 1664.27 300.46C1669.58 310.915 1676.94 318.886 1686.35 324.375C1695.76 329.777 1706.69 332.477 1719.15 332.477C1727.25 332.477 1734.57 331.345 1741.11 329.08C1747.73 326.727 1753.43 323.242 1758.23 318.625C1763.02 313.92 1766.72 308.083 1769.33 301.114L1799.13 309.477C1795.99 319.583 1790.72 328.47 1783.32 336.136C1775.91 343.716 1766.76 349.64 1755.87 353.909C1744.98 358.091 1732.74 360.182 1719.15 360.182ZM1991.36 200.227L1963.66 208.068C1961.92 203.451 1959.35 198.964 1955.95 194.608C1952.64 190.165 1948.11 186.506 1942.36 183.631C1936.61 180.756 1929.24 179.318 1920.27 179.318C1907.99 179.318 1897.75 182.15 1889.56 187.812C1881.46 193.388 1877.41 200.489 1877.41 209.114C1877.41 216.78 1880.2 222.835 1885.77 227.278C1891.35 231.722 1900.06 235.424 1911.91 238.386L1941.7 245.705C1959.65 250.061 1973.02 256.725 1981.82 265.699C1990.62 274.585 1995.02 286.042 1995.02 300.068C1995.02 311.568 1991.71 321.848 1985.09 330.909C1978.56 339.97 1969.41 347.114 1957.65 352.341C1945.88 357.568 1932.21 360.182 1916.61 360.182C1896.14 360.182 1879.19 355.739 1865.78 346.852C1852.36 337.966 1843.87 324.985 1840.29 307.909L1869.57 300.591C1872.35 311.394 1877.63 319.496 1885.38 324.898C1893.22 330.299 1903.46 333 1916.09 333C1930.46 333 1941.88 329.951 1950.33 323.852C1958.87 317.667 1963.13 310.261 1963.13 301.636C1963.13 294.667 1960.7 288.83 1955.82 284.125C1950.94 279.333 1943.45 275.761 1933.34 273.409L1899.88 265.568C1881.5 261.212 1868 254.46 1859.37 245.312C1850.84 236.078 1846.57 224.534 1846.57 210.682C1846.57 199.356 1849.75 189.337 1856.11 180.625C1862.55 171.913 1871.31 165.074 1882.37 160.108C1893.53 155.142 1906.16 152.659 1920.27 152.659C1940.13 152.659 1955.73 157.015 1967.06 165.727C1978.47 174.439 1986.57 185.939 1991.36 200.227ZM2070.2 282.818L2069.67 244.659H2075.95L2163.76 155.273H2201.92L2108.36 249.886H2105.74L2070.2 282.818ZM2041.45 356V88.3636H2072.29V356H2041.45ZM2168.99 356L2090.58 256.682L2112.54 235.25L2208.2 356H2168.99Z" fill="white"/>
</svg>
