<svg width="504" height="384" viewBox="0 0 504 384" fill="none" xmlns="http://www.w3.org/2000/svg">
<path d="M425.696 31.8646C393.831 17.0104 359.331 6.22917 323.393 3.85873e-06C322.762 0.00900511 322.159 0.26735 321.716 0.718759C317.404 8.62501 312.373 18.9271 309.018 26.8333C270.901 21.0869 232.136 21.0869 194.019 26.8333C190.664 18.6875 185.633 8.62501 181.081 0.718757C180.841 0.239591 180.123 2.14922e-06 179.404 2.14064e-06C143.466 6.22917 109.206 17.0104 77.1018 31.8646C76.8623 31.8646 76.6227 32.1042 76.3831 32.3437C11.2164 129.854 -6.75232 224.729 2.11226 318.646C2.11226 319.125 2.35184 319.604 2.83101 319.844C45.956 351.469 87.4039 370.635 128.373 383.333C129.091 383.573 129.81 383.333 130.05 382.854C139.633 369.677 148.258 355.781 155.685 341.167C156.164 340.208 155.685 339.25 154.727 339.01C141.071 333.74 128.133 327.51 115.435 320.323C114.477 319.844 114.477 318.406 115.196 317.688C117.831 315.771 120.466 313.615 123.102 311.698C123.581 311.219 124.3 311.219 124.779 311.458C207.196 349.073 296.081 349.073 377.539 311.458C378.018 311.219 378.737 311.219 379.216 311.698C381.852 313.854 384.487 315.771 387.123 317.927C388.081 318.646 388.081 320.083 386.883 320.562C374.425 327.99 361.248 333.979 347.591 339.25C346.633 339.49 346.394 340.688 346.633 341.406C354.3 356.021 362.925 369.917 372.269 383.094C372.987 383.333 373.706 383.573 374.425 383.333C415.633 370.635 457.081 351.469 500.206 319.844C500.685 319.604 500.925 319.125 500.925 318.646C511.466 210.115 483.435 115.958 426.654 32.3438C426.414 32.1042 426.175 31.8646 425.696 31.8646ZM168.144 261.385C143.466 261.385 122.862 238.625 122.862 210.594C122.862 182.563 142.987 159.802 168.144 159.802C193.539 159.802 213.664 182.802 213.425 210.594C213.425 238.625 193.3 261.385 168.144 261.385ZM335.133 261.385C310.456 261.385 289.852 238.625 289.852 210.594C289.852 182.563 309.977 159.802 335.133 159.802C360.529 159.802 380.654 182.802 380.414 210.594C380.414 238.625 360.529 261.385 335.133 261.385Z" fill="#454545"/>
</svg>
