<svg width="467" height="467" viewBox="0 0 467 467" fill="none" xmlns="http://www.w3.org/2000/svg">
<path d="M30.2184 462.137C26.8122 465.311 22.3069 467.039 17.6518 466.957C12.9966 466.875 8.55512 464.989 5.26293 461.697C1.97074 458.405 0.0849338 453.963 0.00279946 449.308C-0.0793349 444.653 1.64862 440.148 4.82262 436.742L52.9789 388.561C34.4351 362.854 31.2247 334.296 34.9382 309.739C39.2028 281.659 52.7393 257.03 64.7184 245.051L100.656 209.114C104.025 205.749 108.592 203.858 113.354 203.858C118.116 203.858 122.683 205.749 126.052 209.114L257.823 340.884C259.492 342.553 260.817 344.534 261.721 346.715C262.624 348.896 263.09 351.234 263.09 353.594C263.09 355.955 262.624 358.292 261.721 360.473C260.817 362.654 259.492 364.635 257.823 366.304L221.885 402.242C209.906 414.221 185.301 427.757 157.222 432.022C132.664 435.735 104.106 432.501 78.3987 413.957L30.2184 462.137ZM209.906 198.596C208.261 200.361 206.277 201.777 204.073 202.759C201.869 203.741 199.489 204.27 197.077 204.312C194.664 204.355 192.268 203.911 190.03 203.007C187.793 202.103 185.76 200.758 184.054 199.052C182.348 197.346 181.003 195.313 180.099 193.076C179.195 190.838 178.751 188.442 178.794 186.029C178.836 183.616 179.365 181.237 180.347 179.033C181.329 176.829 182.745 174.845 184.51 173.2L219.729 137.981L208.468 126.721C205.104 123.352 203.213 118.785 203.213 114.023C203.213 109.261 205.104 104.694 208.468 101.325L244.406 65.3875C256.385 53.4083 280.99 39.8719 309.069 35.6073C333.627 31.8937 362.185 35.1281 387.892 53.6719L436.049 5.49166C437.705 3.7747 439.688 2.40488 441.879 1.46213C444.071 0.519391 446.429 0.0226033 448.815 0.000753535C451.201 -0.0210963 453.567 0.432431 455.776 1.33487C457.984 2.23732 459.991 3.5706 461.679 5.25694C463.367 6.94327 464.702 8.94887 465.607 11.1567C466.511 13.3646 466.967 15.7305 466.947 18.1164C466.928 20.5022 466.433 22.8603 465.493 25.053C464.552 27.2457 463.184 29.2291 461.469 30.8875L413.312 79.0916C431.856 104.775 435.114 133.333 431.377 157.915C427.112 185.97 413.576 210.575 401.597 222.554L365.659 258.492C362.29 261.857 357.723 263.747 352.961 263.747C348.199 263.747 343.632 261.857 340.263 258.492L329.003 247.231L293.784 282.45C292.139 284.215 290.155 285.631 287.951 286.613C285.747 287.596 283.368 288.124 280.955 288.166C278.542 288.209 276.146 287.765 273.908 286.861C271.671 285.958 269.638 284.612 267.932 282.906C266.226 281.2 264.881 279.167 263.977 276.93C263.073 274.693 262.629 272.296 262.672 269.883C262.715 267.471 263.243 265.091 264.225 262.887C265.207 260.683 266.623 258.699 268.388 257.054L303.607 221.835L245.149 163.377L209.906 198.596Z" fill="#474747"/>
</svg>
