<svg width="477" height="523" viewBox="0 0 477 523" fill="none" xmlns="http://www.w3.org/2000/svg">
<path d="M168.005 82.6083C182.332 40.6813 240.263 39.4115 257.25 78.799L258.687 82.6323L278.022 139.174C282.452 152.141 289.613 164.007 299.019 173.972C308.426 183.936 319.86 191.768 332.551 196.938L337.75 198.878L394.291 218.189C436.218 232.516 437.488 290.447 398.125 307.433L394.291 308.871L337.75 328.205C324.778 332.633 312.908 339.792 302.939 349.199C292.97 358.606 285.135 370.041 279.962 382.734L278.022 387.909L258.711 444.475C244.384 486.402 186.453 487.672 169.49 448.308L168.005 444.475L148.694 387.933C144.266 374.962 137.108 363.091 127.701 353.122C118.294 343.153 106.858 335.318 94.1653 330.146L88.9903 328.205L32.4486 308.895C-9.50241 294.568 -10.7722 236.636 28.6153 219.674L32.4486 218.189L88.9903 198.878C101.957 194.447 113.823 187.287 123.788 177.88C133.753 168.474 141.584 157.039 146.754 144.349L148.694 139.174L168.005 82.6083ZM405.025 4.32897e-06C409.507 -5.6535e-06 413.899 1.25729 417.702 3.62901C421.506 6.00072 424.567 9.39173 426.539 13.4167L427.689 16.2198L436.075 40.8011L460.68 49.1865C465.172 50.7125 469.109 53.5377 471.994 57.3039C474.878 61.0702 476.58 65.6079 476.882 70.3422C477.185 75.0764 476.076 79.794 473.695 83.897C471.313 88 467.768 91.3038 463.507 93.3896L460.68 94.5396L436.099 102.925L427.713 127.53C426.185 132.021 423.357 135.956 419.59 138.838C415.822 141.72 411.283 143.419 406.549 143.719C401.815 144.02 397.099 142.908 392.997 140.525C388.896 138.142 385.594 134.595 383.51 130.333L382.36 127.53L373.975 102.949L349.369 94.5636C344.878 93.0375 340.94 90.2123 338.056 86.4461C335.171 82.6799 333.47 78.1421 333.167 73.4078C332.864 68.6736 333.974 63.956 336.355 59.853C338.736 55.75 342.282 52.4462 346.542 50.3604L349.369 49.2104L373.951 40.825L382.336 16.2198C383.952 11.4862 387.008 7.37698 391.077 4.4682C395.146 1.55942 400.023 -0.00300153 405.025 4.32897e-06Z" fill="#464646"/>
</svg>
