<svg width="614" height="595" viewBox="0 0 614 595" fill="none" xmlns="http://www.w3.org/2000/svg">
<path d="M230.027 114.982L258.773 153.32C262.585 158.404 268.26 161.765 274.55 162.664C280.84 163.564 287.23 161.928 292.314 158.116C297.398 154.304 300.76 148.629 301.659 142.338C302.559 136.048 300.922 129.658 297.111 124.574L268.365 86.2363L325.872 43.1181C341.124 31.6824 360.294 26.7739 379.164 29.4723C398.035 32.1707 415.061 42.2549 426.497 57.5067L469.615 115.013C473.135 119.709 474.809 125.533 474.32 131.381C473.83 137.229 471.212 142.694 466.961 146.739L464.819 148.555C459.937 152.224 456.641 157.618 455.603 163.636C454.565 169.654 455.864 175.841 459.235 180.933C462.605 186.025 467.793 189.638 473.738 191.033C479.683 192.428 485.937 191.501 491.221 188.44L493.564 186.893C498.648 183.081 505.038 181.445 511.329 182.344C517.619 183.244 523.294 186.605 527.106 191.689L570.224 249.196C581.66 264.448 586.568 283.618 583.87 302.489C581.172 321.359 571.087 338.385 555.836 349.821L498.329 392.939L469.583 354.601C466.062 349.907 460.941 346.668 455.19 345.498C449.44 344.329 443.46 345.311 438.385 348.258L436.042 349.805C430.958 353.617 427.596 359.292 426.697 365.583C425.797 371.873 427.434 378.263 431.245 383.347L459.991 421.685L287.471 551.039C272.219 562.475 253.049 567.384 234.178 564.685C215.307 561.987 198.281 551.902 186.846 536.651L143.727 479.144C140.208 474.448 138.534 468.624 139.023 462.776C139.512 456.929 142.13 451.464 146.381 447.418L148.524 445.602C153.405 441.934 156.702 436.539 157.74 430.521C158.778 424.504 157.479 418.317 154.108 413.225C150.737 408.133 145.549 404.52 139.604 403.124C133.659 401.729 127.406 402.656 122.121 405.717L119.778 407.264C114.694 411.076 108.304 412.712 102.014 411.813C95.7236 410.914 90.0483 407.552 86.2364 402.468L43.1182 344.961C32.3538 330.625 27.3458 312.778 29.0802 294.935C30.8145 277.091 39.1655 260.543 52.4893 248.548L56.5436 245.089L230.027 114.982ZM335.433 215.623C330.349 219.435 326.987 225.11 326.088 231.4C325.188 237.69 326.824 244.08 330.636 249.164L359.382 287.502C363.194 292.586 368.869 295.948 375.159 296.847C381.45 297.746 387.84 296.11 392.924 292.298C398.007 288.486 401.369 282.811 402.268 276.521C403.168 270.231 401.532 263.841 397.72 258.757L368.974 220.419C365.162 215.335 359.487 211.973 353.197 211.074C346.906 210.175 340.516 211.811 335.433 215.623Z" fill="#454545"/>
</svg>
